<svg width="328" height="55" viewBox="0 0 328 55" fill="none" xmlns="http://www.w3.org/2000/svg">
<path fill-rule="evenodd" clip-rule="evenodd" d="M326.5 50.9954V4.50004C326.5 2.84318 325.157 1.50004 323.5 1.50004H316H4.50003C2.84318 1.50004 1.50003 2.84318 1.50003 4.50004V50.9954C1.50003 52.6523 2.84318 53.9954 4.50003 53.9954H323.5C325.157 53.9954 326.5 52.6523 326.5 50.9954ZM327.5 4.50004V50.9954C327.5 53.2046 325.709 54.9954 323.5 54.9954H4.50003C2.29089 54.9954 0.500031 53.2046 0.500031 50.9954V4.50004C0.500031 2.2909 2.29089 0.500038 4.50003 0.500038H316H323.5C325.709 0.500038 327.5 2.2909 327.5 4.50004Z" fill="black" fill-opacity="0.12"/>
</svg>
