<svg width="30" height="30" viewBox="0 0 30 30" fill="none" xmlns="http://www.w3.org/2000/svg">
<ellipse cx="11.6708" cy="16.427" rx="6.67061" ry="6.37804" fill="url(#paint0_linear_1_47)"/>
<path d="M7.72533 16.0775L8.15442 15.8206L8.14874 15.8116L7.72533 16.0775ZM24.4096 16.0775L24.8103 16.3766L24.8223 16.3605L24.833 16.3434L24.4096 16.0775ZM16.0675 27.25L15.6782 27.5638L16.0826 28.0655L16.4681 27.5491L16.0675 27.25ZM11.636 20.9559C11.4627 20.741 11.148 20.7072 10.933 20.8805C10.718 21.0538 10.6842 21.3685 10.8575 21.5835L11.636 20.9559ZM11.3564 18.5059L11.3658 18.006L11.3564 18.5059ZM6.84351 11.2975C6.84351 6.45966 10.9518 2.5 16.0675 2.5V1.5C10.4423 1.5 5.84351 5.86558 5.84351 11.2975H6.84351ZM16.0675 2.5C21.1831 2.5 25.2914 6.45966 25.2914 11.2975H26.2914C26.2914 5.86558 21.6926 1.5 16.0675 1.5V2.5ZM8.14874 15.8116C7.31937 14.4912 6.84351 12.9475 6.84351 11.2975H5.84351C5.84351 13.1433 6.37661 14.8703 7.30193 16.3434L8.14874 15.8116ZM25.2914 11.2975C25.2914 12.9475 24.8156 14.4912 23.9862 15.8116L24.833 16.3434C25.7583 14.8703 26.2914 13.1433 26.2914 11.2975H25.2914ZM16.4681 27.5491L24.8103 16.3766L24.009 15.7784L15.6668 26.9509L16.4681 27.5491ZM7.29635 16.3343C8.02494 17.5512 9.4073 18.9694 11.347 19.0058L11.3658 18.006C9.93287 17.9791 8.80904 16.9142 8.15432 15.8206L7.29635 16.3343ZM13.6314 17.3742C14.0006 16.4396 14.0027 15.7298 13.7842 15.1432C13.583 14.6029 13.1872 14.1968 12.9915 13.9473L12.2047 14.5644C12.4935 14.9327 12.7175 15.1443 12.8471 15.4922C12.9594 15.7937 13.0033 16.2424 12.7013 17.0068L13.6314 17.3742ZM10.8575 21.5835L15.6782 27.5638L16.4567 26.9362L11.636 20.9559L10.8575 21.5835ZM11.347 19.0058C12.4133 19.0259 13.274 18.2789 13.6314 17.3742L12.7013 17.0068C12.4614 17.6142 11.925 18.0165 11.3658 18.006L11.347 19.0058Z" fill="black"/>
<path d="M18.3195 15.0984C20.5715 13.8553 21.3431 11.1019 20.0429 8.94866C18.7427 6.79542 15.863 6.05767 13.611 7.30084C11.359 8.54402 10.5874 11.2974 11.8876 13.4506C12.1001 13.8025 12.3547 14.1165 12.6419 14.3903" stroke="black" stroke-linecap="round"/>
<defs>
<linearGradient id="paint0_linear_1_47" x1="11.6708" y1="10.049" x2="11.6708" y2="22.8051" gradientUnits="userSpaceOnUse">
<stop stop-color="#FFA543"/>
<stop offset="1" stop-color="#FFCC83"/>
</linearGradient>
</defs>
</svg>
