<svg width="30" height="30" viewBox="0 0 30 30" fill="none" xmlns="http://www.w3.org/2000/svg">
<circle cx="19.4742" cy="16.6491" r="6.32542" fill="url(#paint0_linear_1_41)"/>
<path d="M9.09317 11.4191L10.1833 10.6109C11.0924 9.93695 11.2052 8.61097 10.4983 7.72731C9.84713 6.91329 9.12589 5.92165 8.50449 4.87681C7.93086 3.91232 6.68549 3.48631 5.7088 4.03891L5.10623 4.37984C4.28846 4.84252 3.51428 5.45058 3.24427 6.35053C2.64324 8.35381 2.90844 11.9261 6.86745 16.4028C9.00159 19.3425 10.384 20.7755 13.1575 22.9832C14.9394 24.5491 18.9721 27.1071 22.7816 26.8326C24.2428 26.7273 25.3836 25.658 26.1671 24.42L26.2077 24.356C26.8241 23.3821 26.4233 22.084 25.4085 21.5375C24.4859 21.0406 23.4757 20.4299 22.6174 19.7721C21.7011 19.0699 20.3021 18.9817 19.4848 19.797L18.4864 20.7929C16.7606 20.309 12.7263 18.3249 10.249 13.8735" stroke="black" stroke-linecap="round"/>
<defs>
<linearGradient id="paint0_linear_1_41" x1="19.4742" y1="10.3237" x2="19.4742" y2="22.9745" gradientUnits="userSpaceOnUse">
<stop stop-color="#FFA543"/>
<stop offset="1" stop-color="#FFCC83"/>
</linearGradient>
</defs>
</svg>
