<svg width="36" height="37" viewBox="0 0 36 37" fill="none" xmlns="http://www.w3.org/2000/svg">
<path d="M9.87604 12.2602C10.2382 10.3769 11.8862 9.01562 13.8041 9.01562H22.1959C24.1138 9.01562 25.7618 10.3769 26.124 12.2602L29.25 28.5156H6.75L9.87604 12.2602Z" stroke="black" stroke-linejoin="round"/>
<path d="M3 28.5156H33" stroke="black" stroke-linejoin="round"/>
<path d="M13.5 28.5156H22.5V31.0156C22.5 32.1202 21.6046 33.0156 20.5 33.0156H15.5C14.3954 33.0156 13.5 32.1202 13.5 31.0156V28.5156Z" stroke="black" stroke-linejoin="round"/>
<path d="M15 9.01562H21V6.51562C21 5.41106 20.1046 4.51562 19 4.51562H17C15.8954 4.51562 15 5.41106 15 6.51563V9.01562Z" stroke="black" stroke-linejoin="round"/>
</svg>
